<?xml version="1.0" encoding="utf-8"?>
<!-- Generator: Adobe Illustrator 16.0.4, SVG Export Plug-In . SVG Version: 6.00 Build 0)  -->
<!DOCTYPE svg PUBLIC "-//W3C//DTD SVG 1.1//EN" "http://www.w3.org/Graphics/SVG/1.1/DTD/svg11.dtd">
<svg version="1.1" id="Layer_1" xmlns="http://www.w3.org/2000/svg" xmlns:xlink="http://www.w3.org/1999/xlink" x="0px" y="0px"
	 width="132.393px" height="25.507px" viewBox="0 0 132.393 25.507" enable-background="new 0 0 132.393 25.507"
	 xml:space="preserve">
<g>
	<path d="M89.751,10.925c-4.768-1.529-6.842-2.877-6.486-5.096c0.342-2.201,2.729-2.07,5.047-1.89
		c2.291,0.192,4.158,0.701,5.52,1.148c0.025,0.018,0.105-0.004,0.121-0.082c0.121-0.806,0.559-2.943,0.678-3.675
		c0.018-0.091-0.068-0.136-0.113-0.147c-2.789-0.755-5.336-1.235-8.381-1.179c-5.703,0.099-8.354,2.396-8.678,7.192
		c-0.191,2.799,1.748,5.893,5.777,7.227c4.029,1.334,6.904,2.087,6.486,4.57c-0.369,2.104-2.85,2.342-5.539,2.187
		c-2.355-0.144-4.348-0.705-5.834-1.156c-0.107-0.032-0.172,0.021-0.197,0.119c-0.111,0.864-0.424,3.071-0.531,3.849
		c-0.004,0.104,0.084,0.188,0.129,0.198c1.859,0.445,5.15,1.07,9.197,1.07c5.473,0,8.312-2.347,8.631-6.841
		C95.825,14.932,94.183,12.352,89.751,10.925z"/>
	<path d="M65.068,10.925c-4.771-1.529-6.839-2.877-6.485-5.096c0.344-2.201,2.729-2.07,5.04-1.89
		c2.292,0.192,4.16,0.701,5.517,1.148c0.039,0.018,0.096-0.004,0.113-0.082c0.139-0.806,0.566-2.943,0.691-3.675
		c0.006-0.091-0.062-0.136-0.111-0.147c-2.793-0.755-5.339-1.235-8.379-1.179C55.75,0.103,53.101,2.4,52.766,7.196
		c-0.188,2.8,1.753,5.896,5.774,7.23c4.024,1.334,6.898,2.086,6.494,4.567c-0.367,2.105-2.846,2.342-5.539,2.188
		c-2.366-0.142-4.346-0.707-5.842-1.156c-0.096-0.032-0.168,0.021-0.188,0.117c-0.11,0.867-0.425,3.073-0.53,3.853
		c-0.003,0.102,0.075,0.188,0.124,0.196c1.856,0.445,5.167,1.07,9.191,1.07c5.478,0,8.31-2.347,8.632-6.843
		C71.138,14.932,69.495,12.352,65.068,10.925z"/>
	<path d="M17.998,0.555H1.468c-0.098,0-0.162,0.075-0.162,0.155v23.971c0,0.088,0.064,0.16,0.162,0.16H6.96
		c0.088,0,0.155-0.072,0.155-0.16V15.71c0-0.082,0.072-0.16,0.162-0.16h9.525c0.092,0,0.164-0.064,0.164-0.15v-3.708
		c0-0.089-0.072-0.165-0.164-0.165H7.277c-0.09,0-0.162-0.07-0.162-0.162V4.74c0-0.085,0.072-0.16,0.162-0.16h10.861
		c0.089,0,0.156-0.069,0.156-0.157l-0.126-3.712C18.156,0.631,18.078,0.555,17.998,0.555z"/>
	<path d="M109.023,0.537h-5.666c-0.1,0-0.16,0.068-0.16,0.156v23.991c0,0.084,0.061,0.149,0.16,0.149h5.666
		c0.09,0,0.154-0.065,0.154-0.149V0.693C109.177,0.605,109.111,0.537,109.023,0.537z"/>
	<path d="M133.536,20.742h-9.395c-0.086,0-0.158-0.074-0.158-0.156l-0.002-19.854c0-0.099-0.066-0.161-0.16-0.161h-5.658
		c-0.086,0-0.162,0.062-0.162,0.161v23.951c0,0.084,0.076,0.147,0.162,0.147h15.186c0.088,0,0.164-0.063,0.168-0.147l0.182-3.772
		C133.697,20.813,133.634,20.742,133.536,20.742z"/>
	<g>
		<path d="M35.363,0.026c-7.436,0-11.493,4.878-11.493,12.743c0,7.857,4.059,12.738,11.493,12.738
			c7.433,0,11.487-4.881,11.487-12.738C46.85,4.787,42.901,0.026,35.363,0.026z M35.363,21.488c-5.05,0-5.749-4.193-5.749-8.719
			c0-4.52,0.699-8.714,5.749-8.714c5.044,0,5.738,4.192,5.738,8.714C41.101,17.294,40.407,21.488,35.363,21.488z"/>
	</g>
</g>
</svg>
